# xmcd CD database file
#
# Track frame offsets:
#	150
#	13441
#	26306
#	35953
#	48501
#	57332
#	70609
#	85097
#	98718
#	116694
#
# Disc length: 1778 seconds
#
# Revision: 0
# Processed by: cddbd v1.5.1PL0 Copyright (c) Steve Scherf et al.
# Submitted via: CDex 1.51
#
DISCID=8206f00a
DTITLE=Sammy Davis Jr - When The Feeling Hits You!
DYEAR=2004
DGENRE=Jazz
TTITLE0=When The Feeling Hits You
TTITLE1=Don't Cry Joe
TTITLE2=There Will Never Be Another You
TTITLE3=April In Paris
TTITLE4=L' Amour Toujours L' Amours
TTITLE5=I Should Care
TTITLE6=Cry Me A River
TTITLE7=Do Nothing Until You Hear From Me
TTITLE8=These Foolish Things Remind Me Of You
TTITLE9=This Is Always
EXTD=YEAR: 2004
EXTT0=
EXTT1=
EXTT2=
EXTT3=
EXTT4=
EXTT5=
EXTT6=
EXTT7=
EXTT8=
EXTT9=
PLAYORDER=
